<?xml version="1.0" encoding="utf-8"?>
<!-- Generator: Adobe Illustrator 19.0.0, SVG Export Plug-In . SVG Version: 6.00 Build 0)  -->
<svg version="1.1" id="Layer_1" xmlns="http://www.w3.org/2000/svg" xmlns:xlink="http://www.w3.org/1999/xlink" x="0px" y="0px"
	 viewBox="0 0 833 237.8" style="enable-background:new 0 0 833 237.8;" xml:space="preserve">
<path style="fill-rule:evenodd;clip-rule:evenodd;fill:#153D70;" d="M239.7,130.8c0,22.6-22.5,38.1-48.9,38.1
	c-19.7,0-37.5-10.4-37.5-28.4V140c0-17.2,15.2-28.9,42.5-28.9c18.5,0,32.9,2.9,43.8,5.6V130.8L239.7,130.8z M251.6,177.2V100
	c0-32-20.8-48.5-53.9-48.5c-17.7,0-31.6,4.4-45.8,10.7l4.6,10.4c11.9-5.8,24.8-10,40.5-10c26.6,0,42.5,12.9,42.5,37.9v5.3
	c-12.4-3.2-24.8-5.3-42.8-5.3c-33.4,0-56.4,14.6-56.4,40.3v0.5c0,25.7,25.8,38.8,49.9,38.8c24.6,0,40.5-11.6,49.4-23.5v20.6H251.6
	L251.6,177.2z"/>
<polygon style="fill-rule:evenodd;clip-rule:evenodd;fill:#153D70;" points="286.3,177.2 286.3,0 273.9,0 273.9,177.2 286.3,177.2 
	"/>
<path style="fill-rule:evenodd;clip-rule:evenodd;fill:#153D70;" d="M315.5,109.5c2.3-27.4,22-48.1,47.6-48.1
	c29.6,0,44.5,23.1,46.3,48.1H315.5L315.5,109.5z M315.5,120.1h107.1c0.3-1.9,0.3-2.7,0.3-4.4v-0.5c0-36.6-23-64.8-59.2-64.8
	c-34.9,0-61.3,28.6-61.3,64.6v0.5c0,38.6,29.4,64.6,63.3,64.6c24.8,0,40.2-9.7,53.4-23.3l-8.6-7.3c-10.6,10.9-24.3,19.4-44.3,19.4
	C340.8,168.9,317.8,151,315.5,120.1L315.5,120.1z"/>
<path style="fill-rule:evenodd;clip-rule:evenodd;fill:#153D70;" d="M545.6,177.2v-75.7c0-29.6-19-51-51.6-51
	c-23.5,0-38,11.4-46.6,26V53.4H435v123.8h12.4v-71.6c0-25.7,19.5-44.2,44.8-44.2c26.1,0,41,16.7,41,42.2v73.5H545.6L545.6,177.2z"/>
<path style="fill-rule:evenodd;clip-rule:evenodd;fill:#153D70;" d="M766.5,180.1c0.1,0,0.2,0,0.3,0c0.1,0,0.1,0,0.2,0
	c38.2,0,66.1-29.6,66.1-64.3v-0.5v0v-0.5c0-34.7-27.8-64.3-66.1-64.3c-0.1,0-0.1,0-0.2,0c-0.1,0-0.2,0-0.3,0
	c-36.8,0-66.1,28.9-66.1,64.3v0.5v0v0.5C700.4,151.2,729.7,180.1,766.5,180.1L766.5,180.1z M766.7,168.9
	c-31-0.2-52.9-24.6-52.9-53.6v0c0-29.1,21.8-53.5,52.9-53.6c29.8,0.1,52.9,23.9,52.9,53.6v0C819.6,145.1,796.4,168.8,766.7,168.9
	L766.7,168.9z"/>
<path style="fill-rule:evenodd;clip-rule:evenodd;fill:#153D70;" d="M63.6,61.4c28.8,0,52.1,23.3,52.1,52.1
	c0,28.8-23.3,52.1-52.1,52.1c-28.8,0-52.1-23.3-52.1-52.1C11.5,84.8,34.8,61.4,63.6,61.4L63.6,61.4z M115.8,0h12.4v177.2h-12.4V150
	c-11.5,16.4-30.6,27.2-52.2,27.2C28.5,177.2,0,148.7,0,113.6s28.5-63.6,63.6-63.6c21.6,0,40.6,10.7,52.2,27.2V0L115.8,0z"/>
<path style="fill-rule:evenodd;clip-rule:evenodd;fill:#153D70;" d="M621.6,61.4c28.8,0,52.1,23.3,52.1,52.1
	c0,28.8-23.3,52.1-52.1,52.1c-28.8,0-52.1-23.3-52.1-52.1C569.5,84.8,592.8,61.4,621.6,61.4L621.6,61.4z M673.8,0h12.4v177.2h-12.4
	V150c-11.5,16.4-30.6,27.2-52.2,27.2c-35.1,0-63.6-28.5-63.6-63.6s28.5-63.6,63.6-63.6c21.6,0,40.6,10.7,52.2,27.2V0L673.8,0z"/>
<path style="fill-rule:evenodd;clip-rule:evenodd;fill:#153D70;" d="M796.5,124.6c-3,13.7-15.2,23.9-29.7,23.9
	c-14.6,0-26.7-10.2-29.7-23.9c6.1,10,17.2,16.6,29.7,16.6C779.3,141.2,790.3,134.6,796.5,124.6L796.5,124.6z"/>
<path style="fill-rule:evenodd;clip-rule:evenodd;fill:#153D70;" d="M750.1,91.2c4.3,0,7.8,3.5,7.8,7.8c0,4.3-3.5,7.8-7.8,7.8
	c-4.3,0-7.8-3.5-7.8-7.8C742.3,94.7,745.8,91.2,750.1,91.2L750.1,91.2z"/>
<path style="fill-rule:evenodd;clip-rule:evenodd;fill:#153D70;" d="M783.4,91.2c4.3,0,7.8,3.5,7.8,7.8c0,4.3-3.5,7.8-7.8,7.8
	c-4.3,0-7.8-3.5-7.8-7.8C775.6,94.7,779.1,91.2,783.4,91.2L783.4,91.2z"/>
<path style="fill-rule:evenodd;clip-rule:evenodd;fill:#153D70;" d="M63.6,72.6c22.6,0,40.9,18.3,40.9,40.9s-18.3,40.9-40.9,40.9
	c-22.6,0-40.9-18.3-40.9-40.9S41,72.6,63.6,72.6L63.6,72.6z M63.6,67.2c25.6,0,46.4,20.8,46.4,46.4s-20.8,46.4-46.4,46.4
	c-25.6,0-46.4-20.8-46.4-46.4S38,67.2,63.6,67.2L63.6,67.2z"/>
<path style="fill-rule:evenodd;clip-rule:evenodd;fill:#153D70;" d="M66.5,69.6v19.2c-1,0.1-1.9,0.1-2.9,0.1c-1,0-1.9,0-2.9-0.1
	V69.6H66.5L66.5,69.6z M66.5,97.7v59.8h-5.7V97.7c1,0.1,1.9,0.1,2.9,0.1C64.6,97.8,65.5,97.7,66.5,97.7L66.5,97.7z"/>
<path style="fill-rule:evenodd;clip-rule:evenodd;fill:#153D70;" d="M19.7,110.7h39.4v5.7H19.7V110.7L19.7,110.7z M68.2,110.7h12.2
	c0,1,0,1.9,0,2.9c0,0.9,0,1.9,0,2.9H68.2V110.7L68.2,110.7z M89.2,110.7h18.3v5.7H89.2c0-1,0-1.9,0-2.9
	C89.3,112.6,89.3,111.6,89.2,110.7L89.2,110.7z"/>
<path style="fill-rule:evenodd;clip-rule:evenodd;fill:#153D70;" d="M63.6,72.6c10.2,0,18.5,18.3,18.5,40.9
	c0,22.6-8.3,40.9-18.5,40.9c-5.5,0-10.5-5.3-13.9-13.8c-1.6,0.6-3.2,1.3-4.7,2.1c4.4,10.4,11.1,17.1,18.6,17.1
	c13.2,0,24-20.8,24-46.4c0-25.6-10.7-46.4-24-46.4C51.2,67.2,41,85.5,39.8,109h5.4C46.3,88.5,54.1,72.6,63.6,72.6L63.6,72.6z
	 M47.1,132.2c-1-4.3-1.7-9.1-1.9-14.1h-5.4c0.3,5.8,1.1,11.3,2.4,16.2C43.8,133.6,45.5,132.8,47.1,132.2L47.1,132.2z"/>
<path style="fill-rule:evenodd;clip-rule:evenodd;fill:#153D70;" d="M68.2,136.7c2.9,0.3,5.6,0.9,8.3,1.8c0.6-1.7,1.1-3.4,1.6-5.2
	c-3.2-1-6.5-1.7-9.9-2.1V136.7L68.2,136.7z M59.1,131.3c-10.2,1-19.5,5.3-26.7,11.9c1.2,1.4,2.4,2.7,3.8,3.9
	c6.2-5.6,14.2-9.4,22.9-10.4V131.3L59.1,131.3z M84.3,142.1c2.4,1.4,4.7,3.1,6.8,5c1.3-1.2,2.6-2.5,3.8-3.9
	c-2.7-2.4-5.6-4.6-8.8-6.3C85.6,138.6,85,140.4,84.3,142.1L84.3,142.1z"/>
<path style="fill-rule:evenodd;clip-rule:evenodd;fill:#153D70;" d="M91.1,80c-2.1,1.9-4.4,3.6-6.8,5c0.7,1.7,1.3,3.5,1.8,5.2
	c3.2-1.8,6.1-3.9,8.8-6.3C93.7,82.5,92.5,81.2,91.1,80L91.1,80z M76.5,88.6c-4,1.3-8.4,2.1-12.9,2.1c-4.5,0-8.8-0.7-12.9-2.1
	c-0.6,1.7-1.1,3.4-1.6,5.2c4.6,1.5,9.4,2.3,14.5,2.3c5.1,0,9.9-0.8,14.5-2.3C77.6,92,77.1,90.2,76.5,88.6L76.5,88.6z M42.9,85
	c-2.4-1.4-4.7-3.1-6.8-5c-1.3,1.2-2.6,2.5-3.8,3.9c2.7,2.4,5.6,4.6,8.8,6.3C41.7,88.5,42.2,86.7,42.9,85L42.9,85z"/>
<path style="fill-rule:evenodd;clip-rule:evenodd;fill:#153D70;" d="M77.8,206.9h-2.7l-11.4,16.3l-11.4-16.3h-2.8l13,18.4v12h2.3
	v-12.1L77.8,206.9L77.8,206.9z M113.1,222.1C113.1,222,113.1,222,113.1,222.1c0-8.4-6-15.7-15.2-15.7c-9.2,0-15.3,7.4-15.3,15.7v0.1
	c0,8.3,6,15.6,15.2,15.6C107,237.8,113.1,230.4,113.1,222.1L113.1,222.1z M110.7,222.2c0,7.5-5.4,13.6-12.9,13.6
	c-7.5,0-13-6.2-13-13.7V222c0-7.5,5.4-13.6,12.9-13.6C105.3,208.4,110.7,214.6,110.7,222.2L110.7,222.2L110.7,222.2z M148,224.4
	v-17.5h-2.3v17.7c0,7.3-3.9,11.1-10.1,11.1c-6.4,0-10.3-4.1-10.3-11.3v-17.5h-2.3v17.7c0,8.5,5.2,13.1,12.5,13.1
	C142.9,237.8,148,233.1,148,224.4L148,224.4z M184,237.3l-10-13c5.1-0.7,8.9-3.6,8.9-8.7v-0.1c0-5.1-4.3-8.6-10.8-8.6h-12.8v30.4
	h2.3v-12.6h9.9l9.7,12.6H184L184,237.3z M180.7,215.7c0,4.4-3.8,6.9-8.9,6.9h-10.2V209h10.4C177.4,209,180.7,211.5,180.7,215.7
	L180.7,215.7L180.7,215.7z M247.6,206.9h-2.3l-9.5,27l-8.9-27.1h-1.7l-8.9,27.1l-9.5-27h-2.5l11,30.6h1.8l8.9-26.4l8.9,26.4h1.8
	L247.6,206.9L247.6,206.9z M281,237.3l-14.1-30.6h-2.2l-14.1,30.6h2.3l3.9-8.5h17.9l3.9,8.5H281L281,237.3z M273.8,226.7h-16l8-17.6
	L273.8,226.7L273.8,226.7z M310.7,206.9H308l-11.4,16.3l-11.4-16.3h-2.8l13,18.4v12h2.3v-12.1L310.7,206.9L310.7,206.9z M353.6,209
	v-2.1h-23.4v2.1h10.6v28.3h2.3V209H353.6L353.6,209z M390.1,222.1C390.1,222,390.1,222,390.1,222.1c0-8.4-6-15.7-15.2-15.7
	s-15.3,7.4-15.3,15.7v0.1c0,8.3,6,15.6,15.2,15.6C384,237.8,390.1,230.4,390.1,222.1L390.1,222.1z M387.7,222.2
	c0,7.5-5.4,13.6-12.9,13.6s-13-6.2-13-13.7V222c0-7.5,5.4-13.6,12.9-13.6C382.3,208.4,387.7,214.6,387.7,222.2L387.7,222.2
	L387.7,222.2z M439.4,232.5l-1.5-1.5c-3.1,3-6.1,4.7-10.5,4.7c-7.2,0-12.8-6-12.8-13.7V222c0-7.6,5.5-13.6,12.8-13.6
	c4.6,0,7.6,1.9,10.2,4.5l1.6-1.6c-3.1-2.9-6.4-4.9-11.8-4.9c-8.8,0-15.2,7.1-15.2,15.7v0.1c0,8.7,6.4,15.6,15.1,15.6
	C432.7,237.8,436.2,235.7,439.4,232.5L439.4,232.5z M473.1,237.3l-10-13c5.1-0.7,8.9-3.6,8.9-8.7v-0.1c0-5.1-4.3-8.6-10.8-8.6h-12.8
	v30.4h2.3v-12.6h9.9l9.7,12.6H473.1L473.1,237.3z M469.7,215.7c0,4.4-3.8,6.9-8.9,6.9h-10.2V209H461
	C466.5,209,469.7,211.5,469.7,215.7L469.7,215.7L469.7,215.7z M504.4,237.3v-2.1h-19.6V223h17.4v-2.1h-17.4V209h19.4v-2.1h-21.6
	v30.4H504.4L504.4,237.3z M542.3,237.3l-14.1-30.6h-2.2l-14.1,30.6h2.3l3.9-8.5h17.9l3.9,8.5H542.3L542.3,237.3z M535,226.7h-16
	l8-17.6L535,226.7L535,226.7z M568.8,209v-2.1h-23.4v2.1H556v28.3h2.3V209H568.8L568.8,209z M600.3,237.3v-2.1h-19.6V223h17.4v-2.1
	h-17.4V209h19.4v-2.1h-21.6v30.4H600.3L600.3,237.3z M649.5,206.9h-2.4l-11.9,27.9l-11.9-27.9h-2.5l13.4,30.6h2L649.5,206.9
	L649.5,206.9z M682.2,237.3l-14.1-30.6h-2.2l-14.1,30.6h2.3l3.9-8.5h17.9l3.9,8.5H682.2L682.2,237.3z M674.9,226.7h-16l8-17.6
	L674.9,226.7L674.9,226.7z M711.5,237.3v-2.1h-17.8v-28.3h-2.3v30.4H711.5L711.5,237.3z M744.6,224.4v-17.5h-2.3v17.7
	c0,7.3-3.9,11.1-10.1,11.1c-6.4,0-10.3-4.1-10.3-11.3v-17.5h-2.3v17.7c0,8.5,5.2,13.1,12.5,13.1
	C739.6,237.8,744.6,233.1,744.6,224.4L744.6,224.4z M777.8,237.3v-2.1h-19.6V223h17.4v-2.1h-17.4V209h19.4v-2.1H756v30.4H777.8
	L777.8,237.3z"/>
</svg>
